<svg xmlns="http://www.w3.org/2000/svg" width="376.05478532203813" height="252.7671173104294" style=""><rect id="backgroundrect" width="100%" height="100%" x="0" y="0" fill="none" stroke="none" style="" class=""/><g class="currentLayer" style=""><title>Layer 1</title><path d="M181.52058604354897,69.1232972079755 a32.20700025558472,32.20700025558472 0 1 0 32.20700025558472,32.20700025558472 a32.20700025558472,32.20700025558472 0 0 0 -32.20700025558472,-32.20700025558472 zm0,51.53120040893555 a19.32420015335083,19.32420015335083 0 1 1 19.32420015335083,-19.32420015335083 a19.32420015335083,19.32420015335083 0 0 1 -19.32420015335083,19.32420015335083 zm57.97260046005249,70.85540056228638 v-6.441400051116943 a45.0898003578186,45.0898003578186 0 0 0 -45.0898003578186,-45.0898003578186 h-25.765600204467773 a45.0898003578186,45.0898003578186 0 0 0 -45.0898003578186,45.0898003578186 v6.441400051116943 h12.882800102233887 v-6.441400051116943 a32.20700025558472,32.20700025558472 0 0 1 32.20700025558472,-32.20700025558472 h25.765600204467773 a32.20700025558472,32.20700025558472 0 0 1 32.20700025558472,32.20700025558472 v6.441400051116943 z" id="svg_1" class="" fill="#ffffff" fill-opacity="1"/></g></svg>