<svg xmlns="http://www.w3.org/2000/svg" xmlns:xlink="http://www.w3.org/1999/xlink" version="1.1" width="113.50685110466179" height="117.98630301628884" style=""><rect id="backgroundrect" width="100%" height="100%" x="0" y="0" fill="none" stroke="none" style="" class=""/><g class="currentLayer" style=""><title>Layer 1</title><path d="M50.87022399902344,12.219173431396484 A21.88031768798828,21.808218002319336 0 0 1 72.75054168701172,34.02739143371582 A21.88031768798828,21.808218002319336 0 0 1 50.87022399902344,55.835609436035156 A21.88031768798828,21.808218002319336 0 0 1 28.989906311035156,34.02739143371582 A21.88031768798828,21.808218002319336 0 0 1 50.87022399902344,12.219173431396484 M50.87022399902344,23.123282432556152 A10.94015884399414,10.904109001159668 0 0 0 39.9300651550293,34.02739143371582 A10.94015884399414,10.904109001159668 0 0 0 50.87022399902344,44.93150043487549 A10.94015884399414,10.904109001159668 0 0 0 61.81038284301758,34.02739143371582 A10.94015884399414,10.904109001159668 0 0 0 50.87022399902344,23.123282432556152 M50.87022399902344,61.28766393661499 C56.88731136322019,61.28766393661499 65.42063526153566,62.54163647174835 73.3522504234314,65.04958154201508 C70.01550197601318,67.12136225223541 67.28046226501465,70.01095113754272 65.1471312904358,73.44574547290802 C60.661666164398184,72.35533457279205 55.73859468460083,71.64656748771668 50.87022399902344,71.64656748771668 C34.62408811569213,71.64656748771668 17.502739524841303,79.60656705856323 17.502739524841303,83.09588193893433 V89.09314188957215 H62.02918601989745 C62.521493167877196,92.90958003997802 63.889013023376464,96.39889492034911 65.96764320373535,99.45204544067383 H7.109588623046875 V83.09588193893433 C7.109588623046875,68.59341696739197 36.26511194229127,61.28766393661499 50.87022399902344,61.28766393661499 M91.89581966400146,44.93150043487549 H100.10093879699707 L111.04109764099121,44.93150043487549 V55.835609436035156 H100.10093879699707 V85.82190918922424 A13.675198554992676,13.630136251449585 0 0 1 86.4257402420044,99.45204544067383 A13.675198554992676,13.630136251449585 0 0 1 72.75054168701172,85.82190918922424 A13.675198554992676,13.630136251449585 0 0 1 86.4257402420044,72.19177293777466 C88.39496883392334,72.19177293777466 90.20009504318239,72.57341675281525 91.89581966400146,73.33670438289643 V44.93150043487549 z" id="svg_1" class="" fill="#ffffff" fill-opacity="1"/></g></svg>