<svg xmlns="http://www.w3.org/2000/svg" xmlns:xlink="http://www.w3.org/1999/xlink" version="1.1" width="141.42857349648773" height="78.8571439275936" style=""><rect id="backgroundrect" width="100%" height="100%" x="0" y="0" fill="none" stroke="none" style="" class=""/><g class="currentLayer" style=""><title>Layer 1</title><path d="M80.35714530944824,61.499999046325684 V17.571428298950195 H8.928571701049805 V61.499999046325684 H80.35714530944824 M80.35714530944824,8.785714149475098 C85.26785974502565,8.785714149475098 89.28571701049805,12.695356945991518 89.28571701049805,17.571428298950195 V61.499999046325684 C89.28571701049805,66.33214182853699 85.26785974502565,70.28571319580078 80.35714530944824,70.28571319580078 H8.928571701049805 C3.973214406967166,70.28571319580078 0,66.33214182853699 0,61.499999046325684 L0,8.785714149475098 C0,3.909642796516423 3.973214406967166,0 8.928571701049805,0 H35.71428680419922 L44.64285850524902,8.785714149475098 H80.35714530944824 M71.42857360839844,21.964285373687744 V30.749999523162842 H62.50000190734863 V48.32142782211304 C62.50000190734863,53.19749917507171 58.52678750038147,57.107141971588135 53.57143020629883,57.107141971588135 C48.66071577072144,57.107141971588135 44.64285850524902,53.19749917507171 44.64285850524902,48.32142782211304 C44.64285850524902,43.48928503990174 48.66071577072144,39.53571367263794 53.57143020629883,39.53571367263794 C54.330358800888064,39.53571367263794 55.08928739547729,39.53571367263794 55.80357313156128,39.799285097122194 V21.964285373687744 H71.42857360839844 z" id="svg_1" class="selected" fill="#ffffff" fill-opacity="1"/></g></svg>