<svg width="95" height="54" viewBox="0 0 95 54" fill="none" xmlns="http://www.w3.org/2000/svg">
<path d="M58.6332 1.34595V20.1059L39.7644 47.401L39.7558 47.4098L36.8151 51.6642V32.8956L58.6332 1.34595Z" fill="url(#paint0_linear_27_113)"/>
<path d="M94.6024 1.05719V53.0737H72.7847V32.6067L94.6024 1.05719Z" fill="url(#paint1_linear_27_113)"/>
<path d="M59.2279 0.496918L56.3907 3.01807L56.3821 3.02684C56.3534 3.04668 56.3272 3.07022 56.3045 3.09687H56.2958L1.78517 51.5855H1.77741C1.75154 51.6109 1.73429 51.6284 1.72567 51.6284V51.6381C1.71346 51.6459 1.70193 51.6546 1.69117 51.6643L0.000915527 53.17L4.34728 46.8934C4.36453 46.8584 4.3904 46.8321 4.40765 46.7971L36.4276 0.496918H59.2279Z" fill="url(#paint2_linear_27_113)"/>
<path d="M59.2279 0.496857L58.6328 1.346L36.8148 32.8956L22.8012 53.17H0L1.77649 51.5855H1.78511L56.2958 3.09681L58.6328 1.02209L59.2279 0.496857Z" fill="url(#paint3_linear_27_113)"/>
<path d="M95 0.496948L94.6033 0.847105L91.0848 3.98193L91.0762 3.99069L91.0417 4.01607C91.0331 4.03445 91.0244 4.03445 91.0158 4.0432C91.0072 4.05197 91.0072 4.05196 90.9986 4.05196V4.06072L90.9296 4.11325C90.8994 4.13359 90.8701 4.15706 90.8433 4.18328L72.7856 20.247L58.634 32.8353L38.6787 50.571L38.6097 50.641C38.5859 50.6666 38.5599 50.69 38.5321 50.711L36.8159 52.2342L35.7725 53.1709L36.8159 51.6652L39.7566 47.4108L39.7653 47.402L58.634 20.106L72.1991 0.496948H95Z" fill="url(#paint4_linear_27_113)"/>
<path d="M95 0.496948L94.6033 1.05721L72.7857 32.6068L58.6341 53.0738L58.5738 53.1701H35.7717L36.8152 52.2334L38.6779 50.5701L58.6333 32.8344L72.7848 20.2461L90.8425 4.18239L90.9287 4.11236L90.9374 4.10362L90.9977 4.05984V4.05109C91.0064 4.05109 91.0064 4.04234 91.015 4.04234L94.6025 0.846237L95 0.496948Z" fill="url(#paint5_linear_27_113)"/>
<g style="mix-blend-mode:multiply" opacity="0.24">
<g style="mix-blend-mode:multiply" opacity="0.24">
<path d="M58.6332 1.34595V18.0224L36.8151 34.7076V32.8956L58.6332 1.34595Z" fill="black"/>
</g>
</g>
<g style="mix-blend-mode:multiply" opacity="0.24">
<g style="mix-blend-mode:multiply" opacity="0.24">
<path d="M94.6024 1.05719V17.541L94.4731 17.6373L72.7847 34.2263V32.6068L94.6024 1.05719Z" fill="black"/>
</g>
</g>
<g style="mix-blend-mode:overlay">
<g style="mix-blend-mode:overlay">
<path d="M56.2954 3.09674L1.78475 51.5854C1.77612 51.5942 1.77612 51.5854 1.77612 51.5854C2.01759 51.3403 2.77648 50.605 3.94931 49.4757C5.40672 48.1013 7.45917 46.0967 9.97733 43.7681C12.4955 41.4395 15.4189 38.6907 18.5924 35.8107C21.766 32.9122 25.1724 29.8667 28.5874 26.8115C30.2949 25.297 32.011 23.7826 33.7012 22.2935C35.3915 20.8045 37.0645 19.353 38.6771 17.9436C41.911 15.1248 44.9811 12.559 47.5855 10.3189C50.1898 8.07867 52.4148 6.29197 53.9498 5.00425L56.2954 3.09674Z" fill="white"/>
</g>
</g>
<g style="mix-blend-mode:overlay">
<g style="mix-blend-mode:overlay">
<path d="M88.7383 5.87967C89.7645 5.04804 90.4889 4.46151 90.8425 4.18225L72.784 20.246L58.6325 32.8343L38.6771 50.57C38.9617 50.2899 39.6689 49.607 40.7037 48.5995C42.1007 47.2785 44.067 45.3526 46.4902 43.1115C48.9135 40.8705 51.7076 38.2355 54.7604 35.4605C57.8132 32.6855 61.0816 29.7529 64.35 26.8203C65.9971 25.3575 67.6443 23.9052 69.2655 22.4782C70.8868 21.0513 72.4994 19.6507 74.0517 18.3026C77.1563 15.5976 80.1142 13.1289 82.6151 10.9842C85.116 8.83941 87.2636 7.11487 88.7383 5.87967Z" fill="white"/>
</g>
</g>
<g style="mix-blend-mode:screen" opacity="0.4">
<g style="mix-blend-mode:screen" opacity="0.4">
<path d="M91.0158 4.04227C91.0158 4.05119 91.0071 4.05118 90.9984 4.06011L90.9287 4.11365C90.9505 4.09035 90.9731 4.06941 90.9984 4.05118C91.0071 4.05118 91.0071 4.04227 91.0158 4.04227Z" fill="white"/>
</g>
</g>
<g style="mix-blend-mode:multiply" opacity="0.25">
<g style="mix-blend-mode:multiply" opacity="0.25">
<path d="M59.2279 0.496857C59.0295 0.812003 58.8312 1.11839 58.6328 1.42479C57.391 3.36731 56.1319 5.29408 54.8815 7.22872C53.4327 9.46976 51.9494 11.6933 50.4661 13.9168C47.5168 18.3627 44.5416 22.7923 41.5406 27.2055L37.0131 33.8148L36.8148 34.1037V32.8956L22.8012 53.17H0C3.79445 53.0037 7.59752 52.9327 11.4006 52.8111L22.4993 52.6185C23.9309 50.4737 25.3883 48.3456 26.8285 46.2105L31.3473 39.61L35.9006 33.0173L40.4798 26.4517C43.5413 22.0835 46.6372 17.7356 49.7676 13.4082C51.3199 11.2451 52.8722 9.07495 54.4589 6.93021C56.0457 4.78547 57.6152 2.62672 59.2279 0.496857Z" fill="black"/>
</g>
</g>
<g style="mix-blend-mode:multiply" opacity="0.25">
<g style="mix-blend-mode:multiply" opacity="0.25">
<path d="M95 0.496948C94.8707 0.707045 94.7413 0.917135 94.6033 1.11848C93.3098 3.16692 91.9731 5.19787 90.6536 7.22881C89.2135 9.46985 87.7216 11.6934 86.2469 13.9169C83.298 18.3628 80.3199 22.7924 77.3131 27.2056L72.7857 33.8149V32.6068L58.6341 53.0738L58.5738 53.1701H35.7717C39.5748 53.0037 43.3692 52.9328 47.1723 52.8111L58.2797 52.6186C59.7026 50.4738 61.16 48.3457 62.6002 46.2106L67.1276 39.61L71.6724 33.0174L76.2516 26.4518C79.313 22.0836 82.4089 17.7357 85.5393 13.4083C87.0912 11.2452 88.6435 9.07504 90.2388 6.9303C91.817 4.77768 93.3865 2.62681 95 0.496948Z" fill="black"/>
</g>
</g>
<g style="mix-blend-mode:multiply" opacity="0.25">
<g style="mix-blend-mode:multiply" opacity="0.25">
<path d="M94.6024 15.265V53.0738H72.7847C74.6043 52.96 76.4239 52.8899 78.2436 52.8111C80.0632 52.7324 81.8742 52.6798 83.6938 52.6185C87.117 52.5223 90.532 52.4697 93.9557 52.426C93.9298 49.4925 93.9126 46.5607 93.9212 43.6194C93.9298 40.4679 93.947 37.3165 93.9988 34.165C94.0505 31.0136 94.1023 27.87 94.2058 24.7194C94.2402 23.1437 94.3092 21.5679 94.3782 19.9922C94.4041 19.2043 94.4386 18.4261 94.4731 17.6382C94.5076 16.8504 94.5507 16.052 94.6024 15.265Z" fill="black"/>
</g>
</g>
<g style="mix-blend-mode:overlay">
<g style="mix-blend-mode:overlay">
<path d="M88.2735 0.496853C85.5918 0.636043 82.9098 0.698188 80.2364 0.803237C77.6407 0.890777 75.0536 0.925799 72.4664 0.987078C71.1987 2.90422 69.9397 4.82134 68.6461 6.71222L64.6361 12.6124L60.5915 18.4864L56.5211 24.3429L52.399 30.1643L48.2337 35.942C46.8367 37.8679 45.4569 39.8016 44.0339 41.7021C42.611 43.6026 41.214 45.5189 39.7652 47.401L58.634 20.105L72.1991 0.495972L88.2735 0.496853Z" fill="white"/>
</g>
</g>
<g style="mix-blend-mode:overlay">
<g style="mix-blend-mode:overlay">
<path d="M55.5033 0.496948C52.3211 0.654521 49.1389 0.724548 45.9654 0.847105L36.7207 1.04058C35.4703 2.92182 34.194 4.78642 32.9349 6.66942L28.9594 12.49L24.9493 18.2948L20.9134 24.0725L16.843 29.8239L12.7209 35.5394C11.3411 37.4487 9.97852 39.357 8.56424 41.2392C7.16719 43.1292 5.77015 45.0209 4.34723 46.8943C4.36448 46.8593 4.39035 46.833 4.4076 46.798L36.4275 0.497816L55.5033 0.496948Z" fill="white"/>
</g>
</g>
<defs>
<linearGradient id="paint0_linear_27_113" x1="47.7242" y1="44.4183" x2="47.7242" y2="16.6427" gradientUnits="userSpaceOnUse">
<stop stop-color="#F58033"/>
<stop offset="1" stop-color="#A53826"/>
</linearGradient>
<linearGradient id="paint1_linear_27_113" x1="83.6938" y1="52.6056" x2="83.6938" y2="16.09" gradientUnits="userSpaceOnUse">
<stop stop-color="#00F3FF"/>
<stop offset="0.238" stop-color="#00EFFC"/>
<stop offset="0.44" stop-color="#00E5F4"/>
<stop offset="0.629" stop-color="#00D3E7"/>
<stop offset="0.81" stop-color="#00BAD4"/>
<stop offset="0.983" stop-color="#009BBC"/>
<stop offset="1" stop-color="#0098BA"/>
</linearGradient>
<linearGradient id="paint2_linear_27_113" x1="23.2179" y1="23.7258" x2="50.6453" y2="-9.04176" gradientUnits="userSpaceOnUse">
<stop stop-color="#F804DE"/>
<stop offset="0.074" stop-color="#F803CC"/>
<stop offset="0.293" stop-color="#F9029D"/>
<stop offset="0.501" stop-color="#FA0178"/>
<stop offset="0.695" stop-color="#FB005D"/>
<stop offset="0.867" stop-color="#FB004D"/>
<stop offset="1" stop-color="#FC0048"/>
</linearGradient>
<linearGradient id="paint3_linear_27_113" x1="0" y1="26.8334" x2="59.2279" y2="26.8334" gradientUnits="userSpaceOnUse">
<stop stop-color="#F804DE"/>
<stop offset="0.074" stop-color="#F803CC"/>
<stop offset="0.293" stop-color="#F9029D"/>
<stop offset="0.501" stop-color="#FA0178"/>
<stop offset="0.695" stop-color="#FB005D"/>
<stop offset="0.867" stop-color="#FB004D"/>
<stop offset="1" stop-color="#FC0048"/>
</linearGradient>
<linearGradient id="paint4_linear_27_113" x1="64.9126" y1="23.1467" x2="88.6699" y2="-13.229" gradientUnits="userSpaceOnUse">
<stop stop-color="#FCFC53"/>
<stop offset="1" stop-color="#F8A700"/>
</linearGradient>
<linearGradient id="paint5_linear_27_113" x1="35.7717" y1="26.8335" x2="95" y2="26.8335" gradientUnits="userSpaceOnUse">
<stop stop-color="#FCFC53"/>
<stop offset="1" stop-color="#F8A700"/>
</linearGradient>
</defs>
</svg>
